 <svg  version="1.0" xmlns="http://www.w3.org/2000/svg"  width="180.000000pt" height="300.000000pt" viewBox="0 0 180.000000 300.000000"  preserveAspectRatio="xMidYMid meet">  <g transform="translate(0.000000,300.000000) scale(0.050000,-0.050000)" fill="#1c4364" stroke="none"> <path d="M1484 5397 c-175 -50 -271 -239 -261 -515 l6 -172 -304 -1 c-414 -1 -401 12 -464 -449 -66 -486 -98 -726 -140 -1060 -43 -341 -113 -864 -192 -1450 -123 -905 -129 -1033 -51 -1112 l59 -58 1653 0 1653 0 59 58 c80 81 82 60 -120 1532 -372 2710 -328 2447 -413 2503 -44 29 -103 35 -336 36 l-283 1 -4 180 c-7 302 -59 413 -235 492 -91 41 -502 51 -627 15z m596 -104 c128 -61 169 -150 177 -387 l7 -207 -472 2 -472 1 0 194 c0 215 29 299 127 372 94 70 505 86 633 25z m845 -708 c17 -19 37 -66 44 -105 8 -38 18 -86 24 -105 9 -33 -58 -35 -1213 -35 -1155 0 -1222 2 -1213 35 5 19 15 68 22 109 24 144 -50 136 1189 136 1038 0 1118 -2 1147 -35z m84 -365 c4 -16 14 -84 21 -150 7 -66 48 -372 91 -680 42 -308 127 -933 189 -1390 61 -456 116 -859 123 -895 l11 -65 -1663 0 c-1575 0 -1663 2 -1653 35 6 19 33 211 62 425 28 215 64 485 80 600 26 180 122 922 242 1860 17 138 34 259 37 270 11 36 2450 27 2460 -10z m457 -3354 c19 -93 5 -157 -38 -174 -63 -24 -3271 -15 -3300 10 -26 21 -41 218 -19 240 5 5 759 7 1675 4 l1666 -5 16 -75z"/> <path d="M1433 2943 c-68 -74 -15 -183 90 -183 67 0 97 35 97 113 0 101 -119 146 -187 70z"/> <path d="M1971 2936 c-41 -59 -39 -102 6 -143 78 -71 188 -26 188 77 0 109 -132 154 -194 66z"/> <path d="M1408 2331 c-25 -64 13 -71 385 -71 l370 0 -7 45 c-8 58 -726 83 -748 26z"/> </g> </svg> 