<?xml version="1.0" encoding="utf-8" ?>
<svg xmlns="http://www.w3.org/2000/svg" xmlns:xlink="http://www.w3.org/1999/xlink" width="582" height="582">
	<path fill="#184064" transform="matrix(3.73077 0 0 3.73077 0.00012207 0)" d="M74.4474 1.60273Q75.9827 1.50038 77.5202 1.43923C93.462 0.853948 110.46 7.83204 122.069 18.6479Q123.442 19.9262 124.75 21.2702Q126.059 22.6142 127.3 24.0207Q128.541 25.4271 129.712 26.8927Q130.883 28.3583 131.98 29.8795Q133.078 31.4007 134.099 32.9738Q135.121 34.5469 136.064 36.1682Q137.008 37.7895 137.871 39.455Q138.734 41.1206 139.514 42.8264Q140.294 44.5322 140.99 46.2742Q141.686 48.0162 142.295 49.7902Q142.905 51.5642 143.427 53.3659Q143.949 55.1676 144.382 56.9927Q144.815 58.8178 145.158 60.662Q145.501 62.5061 145.753 64.3648Q146.006 66.2236 146.167 68.0924Q146.328 69.9613 146.397 71.8358C147.115 92.2894 141.273 114.304 127.013 129.567C115.692 141.684 99.9391 150.975 83.0171 151.558C79.9507 151.59 76.8419 151.653 73.7866 151.366C61.0753 150.169 48.1709 145.144 38.1885 137.129C23.0067 124.941 13.1431 103.793 11.072 84.7135Q10.9654 83.7299 10.883 82.7439Q10.8006 81.7579 10.7424 80.7703Q10.6842 79.7826 10.6503 78.7938Q10.6164 77.805 10.6068 76.8156Q10.5972 75.8263 10.6118 74.837Q10.6265 73.8477 10.6654 72.8591Q10.7044 71.8704 10.7676 70.8831Q10.8308 69.8957 10.9182 68.9102Q11.0056 67.9246 11.1172 66.9416Q11.2288 65.9585 11.3645 64.9784Q11.5002 63.9984 11.6599 63.022Q11.8197 62.0456 12.0033 61.0734Q12.1869 60.1012 12.3944 59.1338Q12.6018 58.1664 12.833 57.2043Q13.0641 56.2423 13.3188 55.2863Q13.5735 54.3302 13.8516 53.3807Q14.1296 52.4312 14.4309 51.4888Q14.7323 50.5464 15.0566 49.6117Q15.381 48.677 15.7282 47.7505Q16.0754 46.824 16.4452 45.9063Q16.815 44.9887 17.2073 44.0804Q17.5996 43.172 18.014 42.2736Q18.4284 41.3752 18.8648 40.4873Q19.3012 39.5993 19.7592 38.7223Q20.2173 37.8453 20.6967 36.9798Q21.1761 36.1144 21.6767 35.2609Q22.1772 34.4075 22.6985 33.5666Q23.2199 32.7257 23.7617 31.8978Q24.3035 31.07 24.8655 30.2557Q25.4275 29.4414 26.0093 28.6411Q26.5911 27.8409 27.1923 27.0552Q27.7936 26.2694 28.414 25.4987C39.9805 11.1112 56.3805 3.55321 74.4474 1.60273ZM35.4764 129.44C41.9989 125.011 47.4965 119.953 52.0548 113.496C53.2778 111.764 54.7146 109.723 55.1086 107.615C55.388 106.121 55.2869 104.469 55.2897 102.949C48.7689 101.67 42.8465 99.8714 38.9066 94.0108C35.8331 89.439 34.9814 83.4954 36.0506 78.1233C36.8971 73.87 39.462 70.2626 42.0706 66.9111C40.7681 53.7241 40.1677 44.5782 49.0338 33.7796C57.259 23.7617 66.7573 20.1151 79.2558 18.6915C86.0339 18.6957 94.7611 20.2936 99.7226 25.2572C100.814 26.3486 101.808 27.5647 102.956 28.5946C104.631 30.0966 106.594 31.2756 108.262 32.8001C113.125 37.243 116.286 43.6964 116.268 50.3422C116.256 55.0507 114.252 59.3056 113.861 63.9039C113.439 68.8698 113.902 74.0077 113.776 79.0013C113.509 89.5655 110.157 100.555 102.498 108.11C100.538 110.043 98.3158 111.631 96.0439 113.172C96.2742 114.282 96.4471 115.452 96.7706 116.536C103.892 122.295 112.365 125.291 120.045 130.04C132.93 119.356 140.427 99.6338 141.942 83.2852C143.752 63.7571 138.452 43.9909 125.842 28.8313C115.485 16.3808 100.638 7.36346 84.337 5.86265Q81.3809 5.61467 78.4144 5.62023C60.4587 6.16288 46.2657 12.602 33.9258 25.721C21.3578 39.0825 14.4346 58.9127 15.0255 77.1833C15.5014 91.8971 19.4086 106.607 27.5848 118.989C29.999 122.646 33.1165 125.803 35.4764 129.44ZM96.4977 121.332C96.4714 129.474 94.712 139.271 90.4368 146.326C96.2009 144.698 101.263 143.184 106.634 140.472C110.473 138.269 114.082 135.808 117.621 133.15C112.715 130.798 107.881 128.408 103.213 125.602C101.957 124.847 97.5812 121.537 96.4977 121.332ZM73.5149 147.158C67.7116 142.339 61.7548 132.991 58.1703 126.312C57.4519 124.973 54.7868 117.725 54.3458 117.397C49.5444 122.94 44.6608 128.147 38.4446 132.149C45.2566 137.587 52.1176 141.606 60.4349 144.365C64.739 145.565 69.2989 145.866 73.5149 147.158ZM65.8527 54.4461C65.4225 59.4519 63.2631 67.683 59.2017 71.0076C58.6061 71.4951 57.8477 71.8248 57.0633 71.7181C54.4147 71.3578 51.5249 65.1365 48.0812 67.635C46.5553 68.7422 45.8716 71.4018 45.6302 73.162C45.2052 76.2594 45.1131 80.5409 47.1072 83.1175C47.9367 84.1894 49.1746 85.0101 50.5443 85.1596C51.9064 85.3084 54.0412 83.9765 55.0896 85.1904C56.0274 86.2764 56.5741 88.3298 56.9979 89.7085C59.1731 96.7843 59.0357 103.533 59.0139 110.844C59.0047 113.941 58.7541 117.369 59.6276 120.363C61.4209 126.511 67.8937 135.133 72.1934 139.873C74.4188 142.326 77.9485 146.539 81.4015 146.94C83.2215 147.152 85.2199 146.862 87.0448 146.733C90.6003 138.345 92.8343 130.455 92.8425 121.275C92.8444 119.219 92.8946 117.072 92.5554 115.045L92.2725 114.667C84.3281 115.724 74.0285 113.891 67.5166 108.892C66.7522 108.306 66.1168 107.717 65.8057 106.775C65.9066 106.138 65.9178 106.058 66.3947 105.618C68.818 105.047 72.6823 107.983 74.881 108.912C77.2084 109.895 80.0446 110.447 82.5439 110.813C92.5754 112.282 98.8675 108.873 104.121 100.37C107.628 94.6922 109.469 88.1276 109.832 81.4849C109.959 79.1634 109.802 76.7075 110.05 74.4115C109.968 72.7 110.132 70.9615 109.985 69.2518C109.88 68.0351 109.532 66.6207 108.543 65.8196C105.804 63.6012 100.764 65.99 98.1309 66.0841C97.4501 66.1084 96.9198 65.7792 96.4307 65.3447C96.2049 64.726 96.1572 64.4164 96.4061 63.7684C96.6907 63.0273 97.523 62.5426 98.2273 62.2629C102.036 60.7502 106.348 61.1576 110.036 62.7652Q109.962 60.5696 109.827 58.3769C109.507 52.5501 107.315 47.6538 102.908 43.7375C101.667 42.6347 100.335 41.7345 99.3906 40.3383C98.232 41.7272 97.5782 43.3184 96.2642 44.6634C90.5172 50.5459 80.9289 53.636 72.9256 54.3625C70.6157 54.5722 68.1648 54.656 65.8527 54.4461Z"/>
	<path fill="#184064" transform="matrix(3.73077 0 0 3.73077 0.00012207 0)" d="M94.7683 70.6317C95.309 70.7042 95.5824 70.6884 95.9604 71.1283C97.444 72.8551 98.4332 81.9799 98.307 84.3763C98.2771 84.9448 98.2259 85.8949 97.8925 86.3688C97.0577 87.556 93.8225 87.8583 92.4836 88.5354C91.8305 88.8658 91.2375 89.4503 90.6965 89.9389C90.6659 89.9307 90.6351 89.9236 90.6049 89.9144C89.7987 89.6707 88.822 88.9322 88.4299 88.192C88.4029 87.6664 88.4087 87.3826 88.7484 86.9438C90.0881 85.2134 93.406 84.5724 95.4437 84.3226C95.0116 80.5833 93.8627 76.8073 93.7542 73.0479C93.7214 71.9117 94.0058 71.4346 94.7683 70.6317Z"/>
	<path fill="#184064" transform="matrix(3.73077 0 0 3.73077 0.00012207 0)" d="M79.0165 61.3383C81.293 61.2612 85.1442 61.0333 87.0021 62.5141C87.5712 62.9676 87.6032 63.3135 87.6918 63.9843C87.5945 64.3004 87.4869 64.7183 87.2617 64.9652C86.183 66.1478 83.423 65.1003 82.0013 64.9871C81.1186 64.9168 80.1907 64.9822 79.3067 65.02C77.3818 65.3759 74.117 67.4213 72.3738 66.9777C71.9013 66.7124 71.7783 66.3843 71.574 65.9066C71.581 65.4157 71.6319 65.0412 71.9384 64.6415C73.4066 62.7273 76.7204 61.6231 79.0165 61.3383Z"/>
	<path fill="#184064" transform="matrix(3.73077 0 0 3.73077 0.00012207 0)" d="M81.0943 93.947C83.7144 93.6727 87.8609 96.5643 91.8533 95.8737C93.4491 95.5977 95.067 94.5709 96.6689 94.1298C97.2781 94.3327 97.3806 94.3551 97.7463 94.8849C97.7939 95.5939 97.5307 96.0157 97.1765 96.6121C96.6924 96.9763 96.1966 97.3145 95.6513 97.5814C91.8976 99.4187 86.8423 98.7454 83.0061 97.4276C81.9705 97.0718 80.8854 96.5897 80.3818 95.5617C80.4035 94.7745 80.6454 94.5575 81.0943 93.947Z"/>
	<path fill="#184064" transform="matrix(3.73077 0 0 3.73077 0.00012207 0)" d="M79.6694 70.2253Q79.8456 70.1737 80.0271 70.1458Q80.2085 70.1178 80.3921 70.1142Q80.5757 70.1105 80.7581 70.1311Q80.9406 70.1517 81.1187 70.1962Q81.2968 70.2408 81.4675 70.3085Q81.6381 70.3761 81.7984 70.4658Q81.9586 70.5554 82.1056 70.6655Q82.2525 70.7755 82.3837 70.904Q82.5148 71.0325 82.6279 71.1772Q82.7409 71.3219 82.8338 71.4803Q82.9267 71.6386 82.9978 71.8079Q83.069 71.9771 83.1172 72.1543Q83.1653 72.3315 83.1897 72.5135Q83.214 72.6955 83.2141 72.8791Q83.2141 73.0627 83.1899 73.2447Q83.1657 73.4267 83.1177 73.6039Q83.0697 73.7811 82.9986 73.9504Q82.9276 74.1197 82.8348 74.2782Q82.742 74.4366 82.6291 74.5814Q82.5162 74.7262 82.3852 74.8548Q82.2541 74.9833 82.1072 75.0935Q81.9603 75.2036 81.8002 75.2934Q81.64 75.3832 81.4694 75.451Q81.2988 75.5188 81.1207 75.5635Q80.9905 75.5962 80.8578 75.6161Q80.7251 75.636 80.5911 75.6429Q80.457 75.6499 80.323 75.6438Q80.1889 75.6378 80.056 75.6188Q79.9232 75.5998 79.7928 75.5681Q79.6624 75.5363 79.5357 75.4921Q79.409 75.4478 79.2872 75.3915Q79.1653 75.3353 79.0495 75.2675Q78.9337 75.1996 78.825 75.1209Q78.7163 75.0422 78.6157 74.9534Q78.5152 74.8645 78.4237 74.7663Q78.3322 74.6681 78.2506 74.5616Q78.169 74.455 78.0981 74.341Q78.0273 74.2271 77.9678 74.1068Q77.9083 73.9865 77.8607 73.861Q77.8131 73.7355 77.7779 73.606Q77.7427 73.4765 77.7202 73.3442Q77.6977 73.2119 77.6881 73.078Q77.6785 72.9441 77.6819 72.81Q77.6853 72.6758 77.7017 72.5426Q77.718 72.4094 77.7472 72.2784Q77.7764 72.1474 77.8182 72.0199Q77.8599 71.8923 77.9138 71.7694Q77.9677 71.6465 78.0332 71.5293Q78.0987 71.4122 78.1753 71.302Q78.2518 71.1918 78.3387 71.0895Q78.4256 70.9872 78.5219 70.8937Q78.6183 70.8003 78.7233 70.7167Q78.8282 70.633 78.9408 70.5599Q79.0533 70.4868 79.1724 70.425Q79.2915 70.3631 79.4161 70.3131Q79.5406 70.2631 79.6694 70.2253Z"/>
	<path fill="#184064" transform="matrix(3.73077 0 0 3.73077 0.00012207 0)" d="M102.664 69.7578C103.209 69.7247 103.739 69.7253 104.266 69.8868C104.843 70.0636 105.301 70.4718 105.571 71.0098C105.92 71.7067 105.883 72.4617 105.64 73.1862C105.255 74.3347 104.608 74.7359 103.596 75.2613C103.425 75.2431 103.258 75.2134 103.092 75.1696C102.122 74.9145 101.294 74.5773 100.778 73.6489C100.446 73.052 100.405 72.4062 100.606 71.758C100.949 70.6587 101.708 70.2402 102.664 69.7578Z"/>
</svg>
